<?xml version="1.0" encoding="UTF-8" standalone="no"?>
<!-- Created with Inkscape (http://www.inkscape.org/) -->

<svg
   version="1.1"
   id="svg1"
   width="1540"
   height="621"
   viewBox="0 0 1540 621"
   sodipodi:docname="logo_transparent_color4.svg"
   inkscape:version="1.4 (86a8ad7, 2024-10-11)"
   inkscape:export-filename="logo_transparent_color4.png"
   inkscape:export-xdpi="96"
   inkscape:export-ydpi="96"
   xmlns:inkscape="http://www.inkscape.org/namespaces/inkscape"
   xmlns:sodipodi="http://sodipodi.sourceforge.net/DTD/sodipodi-0.dtd"
   xmlns="http://www.w3.org/2000/svg"
   xmlns:svg="http://www.w3.org/2000/svg">
  <defs
     id="defs1" />
  <sodipodi:namedview
     id="namedview1"
     pagecolor="#505050"
     bordercolor="#eeeeee"
     borderopacity="1"
     inkscape:showpageshadow="0"
     inkscape:pageopacity="0"
     inkscape:pagecheckerboard="0"
     inkscape:deskcolor="#505050"
     inkscape:zoom="1.2995169"
     inkscape:cx="495.56877"
     inkscape:cy="97.343866"
     inkscape:window-width="1600"
     inkscape:window-height="929"
     inkscape:window-x="-8"
     inkscape:window-y="-8"
     inkscape:window-maximized="1"
     inkscape:current-layer="g1" />
  <g
     inkscape:groupmode="layer"
     inkscape:label="Image"
     id="g1">
    <path
       style="fill:#1b3a5c;fill-opacity:1"
       d="m 143.91094,291.93086 c -6.08127,-0.69362 -24.9606,-7.94231 -37.46904,-14.38618 C 85.431518,266.72094 67.974828,254.35567 53.211568,239.83952 33.454938,220.41357 22.102898,203.82319 12.815098,180.80232 3.8861485,158.67091 2.9418985,149.94912 2.9418985,89.606351 c 0,-51.43395 -0.2085,-49.85139 6.7108,-50.93746 2.0840595,-0.32712 7.1641995,-1.54308 11.2891995,-2.70212 4.125,-1.15905 12.45,-3.3968 18.5,-4.97278 15.48432,-4.03357 85.080932,-22.59641 96.500002,-25.73853 5.225,-1.43773 10.4,-2.60622 11.5,-2.59663 1.1,0.01 7.175,1.39921 13.5,3.08805 6.325,1.68885 22.075,5.84189 35,9.22898 12.925,3.3871 27.55,7.25182 32.5,8.58827 4.95,1.33646 18.45,4.91086 30,7.94311 11.55,3.03226 23.475,6.1818 26.5,6.99897 3.025,0.81718 6.09342,2.27278 6.81872,3.23468 2.03581,2.69994 1.07257,98.242329 -1.11655,110.748909 -5.41232,30.92086 -18.26365,55.92281 -41.37078,80.48583 -20.92092,22.23907 -48.41478,40.55053 -79.45329,52.91747 -15.15273,6.03744 -18.68827,6.86135 -25.90906,6.03776 z m 16.34433,-34.10417 c 23.84498,-9.74505 45.69272,-23.9561 62.60563,-40.72237 9.03179,-8.95349 16.69387,-18.41023 15.29439,-18.87672 -0.54289,-0.18097 -3.85049,1.66598 -7.35023,4.10433 -17.10955,11.9206 -37.45622,20.98665 -56.36316,25.11423 -15.60209,3.4061 -38.42517,3.25723 -54,-0.35222 -16.86937,-3.90946 -38.970452,-14.15895 -57.109872,-26.48501 -9.04685,-6.14749 -3.23866,2.59511 11.57543,17.4236 4.69394,4.69849 10.33444,9.99662 12.53444,11.7736 17.666232,14.26937 50.438132,32.02818 59.313372,32.1414 1.82236,0.0232 7.89736,-1.83113 13.5,-4.12084 z m 5.28378,-53.26465 c 9.5334,-1.6778 24.86937,-7.23258 35.40285,-12.82314 15.84605,-8.41015 42.33363,-27.67037 49.89118,-36.27794 l 3.17433,-3.61536 -3.98557,-4.76032 c -6.35394,-7.58908 -21.05446,-21.19288 -30.69615,-28.40607 -9.53506,-7.13343 -12.07848,-8.16792 -10.91485,-4.43941 0.38621,1.2375 0.94372,5.93576 1.23891,10.44057 1.77477,27.08402 -16.74069,49.73335 -46.47274,56.84852 -8.57908,2.05306 -26.66773,1.56728 -34.47985,-0.92597 -26.76972,-8.5436 -42.960322,-30.25629 -41.514782,-55.67414 0.26778,-4.70856 1.03468,-9.5846 1.70422,-10.83564 2.75689,-5.1513 -1.03692,-3.73405 -12.36351,4.6186 -14.14889,10.43394 -33.58119,29.72016 -33.58119,33.32876 0,1.49104 12.60165,13.03061 22,20.14581 21.50046,16.27734 47.188732,28.94739 65.493062,32.30269 9.58338,1.7567 25.35095,1.78951 35.10409,0.073 z m -1.96727,-51.85106 c 5.40994,-2.77689 12.32002,-10.4278 15.09251,-16.71059 0.85474,-1.93695 1.57069,-6.42425 1.59718,-10.01059 0.13986,-18.93299 -17.24084,-31.788199 -38.64009,-28.579189 -5.90838,0.88602 -15.50219,6.795729 -19.30433,11.891299 -11.6772,15.64967 -4.35952,38.20547 14.62485,45.07918 6.99714,2.53347 20.03324,1.71591 26.62988,-1.67011 z M 40.618378,110.97884 C 74.316368,79.464441 119.20803,62.872151 159.79387,66.930701 c 34.84929,3.48489 66.55628,18.04256 95.00356,43.619119 2.71608,2.44199 5.44231,4.43998 6.05828,4.43998 0.80448,0 1.04478,-7.2411 0.85307,-25.706499 l -0.26688,-25.70649 -4.5,-1.31805 c -2.475,-0.72493 -8.55,-2.406 -13.5,-3.73571 -20.97275,-5.6339 -47.55633,-12.85419 -69.88097,-18.98019 -13.13453,-3.60418 -24.5808,-6.55306 -25.43617,-6.55306 -0.85536,0 -16.65893,4.10292 -35.11903,9.1176 -18.460112,5.01468 -36.713832,9.92931 -40.563832,10.9214 -3.85,0.99209 -9.475,2.48594 -12.5,3.31966 -3.025,0.83373 -9.74107,2.65767 -14.9246,4.0532 -5.18352,1.39553 -9.78134,2.89408 -10.21736,3.3301 -0.58644,0.58644 -1.2277,37.366429 -0.89077,51.091369 0.0474,1.93272 1.29832,1.21598 6.70921,-3.84429 z"
       id="path4"
       inkscape:export-filename="logo_favicon.png"
       inkscape:export-xdpi="18.700001"
       inkscape:export-ydpi="18.700001" />
    <path
       style="fill:#ffc107;fill-opacity:1;stroke-width:0.544131"
       d="m 34.196768,100.80018 c 0.0289,-8.155159 0.21257,-19.683479 0.4081,-25.618479 0.31345,-9.51398 0.4714,-10.87561 1.33485,-11.50655 1.05601,-0.77165 7.32117,-2.56142 34.38915,-9.82391 73.528672,-19.72817 76.624482,-20.51847 79.146752,-20.20479 1.36005,0.16915 9.20644,2.12129 17.43641,4.3381 20.35265,5.48214 82.2408,22.30025 88.96534,24.17634 l 5.4413,1.51807 v 25.11312 c 0,13.812219 -0.17932,25.292319 -0.3985,25.511349 -0.42214,0.42185 -2.38987,-1.0673 -11.07893,-8.3844 -12.10503,-10.193699 -23.16914,-17.401549 -36.95018,-24.071659 -10.15073,-4.913 -16.78238,-7.45096 -26.31418,-10.07053 -21.23475,-5.83583 -41.31686,-7.08443 -60.7467,-3.77693 -30.928542,5.26491 -58.613332,19.02378 -84.264242,41.877899 -3.54947,3.16246 -6.67142,5.74992 -6.93767,5.74992 -0.27213,0 -0.46106,-6.49202 -0.4315,-14.82755 z"
       id="path33" />
    <path
       style="fill:#ffc107;fill-opacity:1;stroke-width:0.544131"
       d="m 139.41444,259.80338 c -13.04952,-4.84852 -35.13042,-17.52373 -49.294832,-28.29697 -10.49401,-7.98159 -32.81279,-31.75554 -30.52709,-32.51744 0.30127,-0.10042 3.19174,1.50506 6.42325,3.56774 11.67067,7.44942 18.60308,11.22742 29.00101,15.80489 21.263982,9.36103 34.045382,11.904 57.254182,11.39125 13.56577,-0.29971 17.92569,-0.86446 28.66947,-3.71363 14.59088,-3.86939 32.5863,-12.06218 46.50372,-21.1718 8.36142,-5.47295 10.67896,-6.79305 10.67896,-6.08285 0,2.41658 -19.72803,22.92463 -29.38305,30.54481 -16.01434,12.63925 -37.68501,24.75191 -54.1264,30.25354 -6.88797,2.30486 -9.48767,2.34257 -15.19922,0.22046 z"
       id="path35" />
  </g>
</svg>
