<?xml version="1.0" encoding="UTF-8" standalone="no"?>
<!-- Created with Inkscape (http://www.inkscape.org/) -->

<svg
   version="1.1"
   id="svg1"
   width="1540"
   height="621"
   viewBox="0 0 1540 621"
   sodipodi:docname="logo_transparent_color4.svg"
   inkscape:version="1.4 (86a8ad7, 2024-10-11)"
   inkscape:export-filename="logo_transparent_color4.png"
   inkscape:export-xdpi="96"
   inkscape:export-ydpi="96"
   xmlns:inkscape="http://www.inkscape.org/namespaces/inkscape"
   xmlns:sodipodi="http://sodipodi.sourceforge.net/DTD/sodipodi-0.dtd"
   xmlns="http://www.w3.org/2000/svg"
   xmlns:svg="http://www.w3.org/2000/svg">
  <defs
     id="defs1" />
  <sodipodi:namedview
     id="namedview1"
     pagecolor="#505050"
     bordercolor="#eeeeee"
     borderopacity="1"
     inkscape:showpageshadow="0"
     inkscape:pageopacity="0"
     inkscape:pagecheckerboard="0"
     inkscape:deskcolor="#505050"
     inkscape:zoom="0.91889722"
     inkscape:cx="279.68308"
     inkscape:cy="366.19982"
     inkscape:window-width="2560"
     inkscape:window-height="1009"
     inkscape:window-x="-8"
     inkscape:window-y="-8"
     inkscape:window-maximized="1"
     inkscape:current-layer="g1" />
  <g
     inkscape:groupmode="layer"
     inkscape:label="Image"
     id="g1">
    <path
       style="fill:#1b3a5c;fill-opacity:1"
       d="m 1340.9483,352.15838 c -0.2696,-0.70561 -0.3737,-31.65793 -0.2313,-68.78293 l 0.259,-67.5 24,0.12111 c 21.9348,0.11068 24.4801,0.30499 29.5793,2.258 9.5921,3.67377 14.8718,9.20665 18.3696,19.25062 2.0577,5.9084 2.1462,34.33826 0.1277,40.98879 -2.4062,7.92774 -5.5026,12.87054 -10.0871,16.10202 -6.451,4.54703 -10.5196,5.69599 -24.9895,7.05684 l -13,1.22262 -0.5,25 -0.5,25 -11.2687,0.28293 c -8.4579,0.21235 -11.3911,-0.0371 -11.759,-1 z m 41.9232,-71.6378 c 6.1234,-3.47918 7.0117,-5.93142 7.4384,-20.53509 0.3423,-11.71102 0.1458,-13.86749 -1.6288,-17.8793 -2.932,-6.62831 -5.8539,-8.16277 -15.6141,-8.19993 l -8.091,-0.0308 -0.2687,23.37496 c -0.1951,16.96881 0.058,23.76854 0.9231,24.81105 1.5479,1.86516 13.0567,0.83659 17.2411,-1.54088 z"
       id="path26" />
    <path
       style="fill:#1b3a5c;fill-opacity:1"
       d="m 1175.234,294.65813 -0.258,-58.78268 -12.5,-0.5 -12.5,-0.5 v -9.5 -9.5 h 36 36 v 9.5 9.5 l -11.5,0.5 -11.5,0.5 -0.5,58.5 -0.5,58.5 -11.242,0.28268 -11.242,0.28267 z"
       id="path25" />
    <path
       style="fill:#1b3a5c;fill-opacity:1"
       d="m 1267.7039,353.42216 c -11.9553,-1.89061 -22.3137,-9.67775 -26.4344,-19.87255 -2.2425,-5.54804 -2.3001,-6.58618 -2.5882,-46.67425 -0.3244,-45.13802 0.1429,-49.94558 5.6345,-57.97087 6.3637,-9.29958 18.2302,-14.52904 32.9692,-14.52904 18.3615,0 30.2103,6.11752 36.4141,18.80061 l 3.2769,6.69939 v 44 c 0,43.49578 -0.026,44.06466 -2.2818,49.64287 -2.7954,6.91313 -10.0004,13.98637 -17.7282,17.40396 -6.1845,2.73508 -20.2023,3.93268 -29.2621,2.49997 z m 19.1411,-20.55294 c 5.4915,-3.59812 5.631,-4.80399 5.631,-48.66059 0,-37.37515 -0.1371,-40.62014 -1.8514,-43.81669 -2.9048,-5.41629 -6.3517,-7.44515 -12.6486,-7.44515 -6.3433,0 -10.0446,2.19046 -12.702,7.51702 -1.5154,3.03761 -1.7072,7.82771 -1.75,43.70139 -0.045,37.73308 0.073,40.52734 1.8614,44.03252 1.7251,3.38154 3.6584,4.95441 8.0906,6.58234 2.5814,0.94812 10.7981,-0.22629 13.369,-1.91084 z"
       id="path21" />
    <path
       style="fill:#1b3a5c;fill-opacity:1"
       d="m 1085.7457,353.38746 c -13.396,-2.85337 -23.9286,-12.31846 -25.6592,-23.05859 -1.4872,-9.2295 -1.5652,-15.74623 -0.2018,-16.87769 0.8984,-0.74566 5.0125,-1.04777 11.7373,-0.86193 l 10.354,0.28613 0.5,7.05069 c 0.314,4.42831 1.1798,8.08573 2.3278,9.83353 2.5896,3.94278 8.0181,5.97183 14.0618,5.25604 10.2428,-1.21311 14.9548,-10.65624 11.5094,-23.06571 -1.4415,-5.19202 -10.5851,-14.18252 -18.265,-17.9593 -7.0116,-3.44807 -17.8613,-11.41423 -22.4302,-16.46871 -7.3975,-8.18391 -10.7822,-18.95948 -9.9849,-31.78775 1.3301,-21.39985 15.4054,-32.16081 40.8268,-31.21318 8.3234,0.31027 10.3361,0.76291 16.1673,3.63585 11.0514,5.44497 16.1907,14.97123 15.5845,28.88794 l -0.2975,6.83067 h -10.5 -10.5 l -0.5735,-6 c -0.9983,-10.44435 -3.8397,-14.14216 -11.6742,-15.19298 -8.9352,-1.19846 -15.276,4.92892 -15.2047,14.69298 0.099,13.58519 4.207,18.43958 26.722,31.57877 10.7556,6.27674 19.0016,15.70958 22.8108,26.09402 2.2467,6.12464 2.5749,8.38962 2.2458,15.5 -0.6882,14.86786 -6.9453,24.60869 -19.5163,30.38207 -4.7922,2.20087 -7.5616,2.72869 -15.8099,3.01327 -5.5,0.18976 -11.9036,-0.0605 -14.2303,-0.55605 z"
       id="path20" />
    <path
       style="fill:#1b3a5c;fill-opacity:1"
       d="m 335.44487,432.31653 c -6.08127,-0.69362 -24.9606,-7.94231 -37.46904,-14.38618 -21.01038,-10.82374 -38.46707,-23.18901 -53.23033,-37.70516 -19.75663,-19.42595 -31.10867,-36.01633 -40.39647,-59.0372 -8.92895,-22.13141 -9.8732,-30.8532 -9.8732,-91.19597 0,-51.43395 -0.2085,-49.85139 6.7108,-50.93746 2.08406,-0.32712 7.1642,-1.54308 11.2892,-2.70212 4.125,-1.15905 12.45,-3.3968 18.5,-4.97278 15.48432,-4.03357 85.08093,-22.59641 96.5,-25.73853 5.225,-1.43773 10.4,-2.60622 11.5,-2.59663 1.1,0.01 7.175,1.39921 13.5,3.08805 6.325,1.68885 22.075,5.84189 35,9.22898 12.925,3.3871 27.55,7.25182 32.5,8.58827 4.95,1.33646 18.45,4.91086 30,7.94311 11.55,3.03226 23.475,6.1818 26.5,6.99897 3.025,0.81718 6.09342,2.27278 6.81872,3.23468 2.03581,2.69994 1.07257,98.24233 -1.11655,110.74891 -5.41232,30.92086 -18.26365,55.92281 -41.37078,80.48583 -20.92092,22.23907 -48.41478,40.55053 -79.45329,52.91747 -15.15273,6.03744 -18.68827,6.86135 -25.90906,6.03776 z m 16.34433,-34.10417 c 23.84498,-9.74505 45.69272,-23.9561 62.60563,-40.72237 9.03179,-8.95349 16.69387,-18.41023 15.29439,-18.87672 -0.54289,-0.18097 -3.85049,1.66598 -7.35023,4.10433 -17.10955,11.9206 -37.45622,20.98665 -56.36316,25.11423 -15.60209,3.4061 -38.42517,3.25723 -54,-0.35222 -16.86937,-3.90946 -38.97045,-14.15895 -57.10987,-26.48501 -9.04685,-6.14749 -3.23866,2.59511 11.57543,17.4236 4.69394,4.69849 10.33444,9.99662 12.53444,11.7736 17.66623,14.26937 50.43813,32.02818 59.31337,32.1414 1.82236,0.0232 7.89736,-1.83113 13.5,-4.12084 z m 5.28378,-53.26465 c 9.5334,-1.6778 24.86937,-7.23258 35.40285,-12.82314 15.84605,-8.41015 42.33363,-27.67037 49.89118,-36.27794 l 3.17433,-3.61536 -3.98557,-4.76032 c -6.35394,-7.58908 -21.05446,-21.19288 -30.69615,-28.40607 -9.53506,-7.13343 -12.07848,-8.16792 -10.91485,-4.43941 0.38621,1.2375 0.94372,5.93576 1.23891,10.44057 1.77477,27.08402 -16.74069,49.73335 -46.47274,56.84852 -8.57908,2.05306 -26.66773,1.56728 -34.47985,-0.92597 -26.76972,-8.5436 -42.96032,-30.25629 -41.51478,-55.67414 0.26778,-4.70856 1.03468,-9.5846 1.70422,-10.83564 2.75689,-5.1513 -1.03692,-3.73405 -12.36351,4.6186 -14.14889,10.43394 -33.58119,29.72016 -33.58119,33.32876 0,1.49104 12.60165,13.03061 22,20.14581 21.50046,16.27734 47.18873,28.94739 65.49306,32.30269 9.58338,1.7567 25.35095,1.78951 35.10409,0.073 z m -1.96727,-51.85106 c 5.40994,-2.77689 12.32002,-10.4278 15.09251,-16.71059 0.85474,-1.93695 1.57069,-6.42425 1.59718,-10.01059 0.13986,-18.93299 -17.24084,-31.7882 -38.64009,-28.57919 -5.90838,0.88602 -15.50219,6.79573 -19.30433,11.8913 -11.6772,15.64967 -4.35952,38.20547 14.62485,45.07918 6.99714,2.53347 20.03324,1.71591 26.62988,-1.67011 z m -122.9534,-41.73214 c 33.69799,-31.5144 78.58965,-48.10669 119.17549,-44.04814 34.84929,3.48489 66.55628,18.04256 95.00356,43.61912 2.71608,2.44199 5.44231,4.43998 6.05828,4.43998 0.80448,0 1.04478,-7.2411 0.85307,-25.7065 l -0.26688,-25.70649 -4.5,-1.31805 c -2.475,-0.72493 -8.55,-2.406 -13.5,-3.73571 -20.97275,-5.6339 -47.55633,-12.85419 -69.88097,-18.98019 -13.13453,-3.60418 -24.5808,-6.55306 -25.43617,-6.55306 -0.85536,0 -16.65893,4.10292 -35.11903,9.1176 -18.46011,5.01468 -36.71383,9.92931 -40.56383,10.9214 -3.85,0.99209 -9.475,2.48594 -12.5,3.31966 -3.025,0.83373 -9.74107,2.65767 -14.9246,4.0532 -5.18352,1.39553 -9.78134,2.89408 -10.21736,3.3301 -0.58644,0.58644 -1.2277,37.36643 -0.89077,51.09137 0.0474,1.93272 1.29832,1.21598 6.70921,-3.84429 z"
       id="path4" />
    <path
       style="fill:#ffc107;fill-opacity:1;stroke-width:1.08826"
       d="m 918.76434,352.39052 c -1.78512,-0.46649 -1.90397,-4.29431 -1.89672,-61.08843 0.004,-33.32492 0.31993,-63.89635 0.7015,-67.93652 l 0.69376,-7.34576 18.07101,0.0215 c 29.80776,0.0356 41.32266,2.90674 47.86208,11.93414 4.6116,6.36613 5.88749,13.96918 5.37583,32.0347 -0.50487,17.82574 -1.49059,20.71726 -9.94438,29.17105 l -5.41455,5.41455 2.72038,8.86755 c 1.49621,4.87716 5.50648,17.62222 8.91172,28.32236 3.40523,10.70015 5.96748,19.67866 5.69388,19.95227 -1.13972,1.13971 -9.72635,1.61954 -16.32897,0.91245 l -7.08257,-0.75847 -3.40995,-11.07444 c -1.87547,-6.09094 -5.61422,-18.05291 -8.30832,-26.58216 l -4.89837,-15.50772 h -5.19156 -5.19156 l -0.70709,9.96154 c -0.3889,5.47884 -0.70709,17.41035 -0.70709,26.51447 v 16.55294 l -5.04907,0.69206 c -5.50639,0.75473 -12.8928,0.72773 -15.89996,-0.0581 z m 41.42219,-74.23077 c 4.6907,-2.51038 5.90779,-7.05605 5.90779,-22.0648 0,-11.28044 -0.35244,-14.47589 -1.84838,-16.759 -2.67784,-4.08688 -8.29426,-6.05961 -16.17591,-5.68165 -6.47998,0.31075 -6.73466,0.4341 -7.40497,3.5866 -0.93207,4.38359 -1.12446,31.62768 -0.2675,37.87991 0.54654,3.98745 1.14864,5.05935 2.99272,5.32786 3.66014,0.53295 14.20985,-0.90472 16.79625,-2.28892 z"
       id="path10" />
    <path
       style="fill:#ffc107;fill-opacity:1;stroke-width:1.08826"
       d="m 918.49249,350.96452 c -0.88677,-1.43483 -0.79832,-128.65672 0.0919,-132.20368 0.63489,-2.5296 1.16154,-2.7384 6.82748,-2.70692 14.38208,0.0799 40.27307,2.16682 45.09392,3.63476 6.845,2.08428 12.18394,6.26569 15.19663,11.90189 2.27361,4.2535 2.43854,5.92378 2.43854,24.69489 0,22.78183 0.0684,22.53465 -9.03928,32.6824 l -5.40297,6.02 8.00183,25.53957 c 4.40101,14.04676 8.30544,26.9039 8.67652,28.57141 l 0.67468,3.03183 -11.21578,-0.31118 -11.21578,-0.31119 -8.19591,-26.38788 -8.19592,-26.38789 -5.57734,-0.002 c -5.37671,-0.002 -5.6018,0.11989 -6.2575,3.39837 -0.37409,1.87045 -0.68016,13.57127 -0.68016,26.00183 0,19.60526 -0.22817,22.68858 -1.7214,23.26158 -2.84671,1.09238 -18.77599,0.74328 -19.49948,-0.42735 z m 40.55644,-71.97741 c 6.00189,-1.88662 7.24702,-5.76417 7.28976,-22.70165 0.026,-10.28842 -0.39687,-15.45298 -1.41085,-17.23224 -2.06353,-3.62094 -7.71828,-5.62124 -15.89101,-5.62124 -5.87647,0 -7.26059,0.35545 -8.19691,2.10498 -0.66007,1.23336 -1.12655,10.43895 -1.12655,22.23162 0,24.01187 0.0655,24.16745 9.70285,23.0444 3.34231,-0.38949 7.67703,-1.21113 9.63271,-1.82587 z"
       id="path11" />
    <path
       style="fill:#ffc107;fill-opacity:1;stroke-width:1.08826"
       d="m 1015.145,351.78037 c -1.3678,-2.12638 -1.7514,-41.70332 -0.8807,-90.8698 l 0.7949,-44.89076 h 11.2988 11.2989 v 67.89988 c 0,60.9119 -0.1772,67.96786 -1.7214,68.56044 -3.3397,1.28154 -19.8739,0.72502 -20.7905,-0.69976 z"
       id="path12" />
    <path
       style="fill:#ffc107;fill-opacity:1;stroke-width:1.08826"
       d="m 835.70209,350.95661 c -7.79082,-3.07411 -13.84317,-8.63989 -16.80374,-15.45282 -3.48111,-8.01078 -4.17541,-23.20249 -3.48375,-76.22561 l 0.56429,-43.25837 h 11.10367 11.10366 l 0.73927,52.50859 c 0.40659,28.87973 1.03043,54.63502 1.3863,57.23399 0.85533,6.24658 4.88491,8.86805 13.64034,8.8738 7.90095,0.005 11.54121,-2.76595 12.90253,-9.82198 0.51628,-2.67602 0.96002,-25.97741 0.98609,-51.78088 0.0261,-25.80347 0.35882,-49.18747 0.73944,-51.96446 l 0.69206,-5.04906 h 11.35618 11.35618 l -0.35815,56.86163 c -0.39866,63.29369 -0.0749,60.50714 -8.0558,69.341 -2.26471,2.50677 -6.59733,5.84943 -9.62803,7.42812 -4.9612,2.5843 -6.86604,2.90101 -19.11362,3.17798 -11.52663,0.26065 -14.44648,-0.0251 -19.12692,-1.87193 z"
       id="path13" />
    <path
       style="fill:#ffc107;fill-opacity:1;stroke-width:1.08826"
       d="m 742.41456,351.63557 c -9.57112,-3.56351 -16.7006,-10.36095 -19.65766,-18.74216 -2.05565,-5.82634 -3.39798,-61.16173 -1.95258,-80.49247 1.223,-16.35652 2.71861,-20.831 9.16299,-27.41339 5.6409,-5.76169 13.81459,-8.98347 24.74169,-9.75229 10.3741,-0.72991 18.82317,1.02937 26.20597,5.45665 8.18062,4.90572 11.48313,10.69193 12.94415,22.679 0.62979,5.16714 0.84117,10.18675 0.46974,11.15468 -0.55813,1.45446 -2.51647,1.75987 -11.28443,1.75987 h -10.6091 l -0.60978,-8.06266 c -0.73316,-9.69415 -1.98035,-12.31221 -6.83071,-14.33882 -4.76824,-1.99229 -8.14228,-1.94488 -13.47629,0.18937 -6.78594,2.71519 -6.95387,3.91799 -7.05736,50.54956 -0.10073,45.38417 -0.25326,44.36279 7.31422,48.97697 4.31071,2.62841 8.85364,2.70156 13.8162,0.22249 4.63607,-2.31598 6.38167,-6.73124 6.46814,-16.3603 l 0.0614,-6.8397 11.15467,0.31014 11.15468,0.31013 -0.0484,8.16196 c -0.0911,15.37848 -4.91536,24.40404 -16.12553,30.16891 -4.95547,2.54836 -7.07642,2.9166 -18.65046,3.23802 -9.35235,0.25971 -14.23212,-0.0741 -17.19161,-1.17596 z"
       id="path14" />
    <path
       style="fill:#ffc107;fill-opacity:1;stroke-width:1.08826"
       d="m 644.52257,352.4448 -2.99271,-0.53693 v -67.94404 -67.94402 h 29.38304 29.38305 v 9.25022 9.25021 H 682.88377 665.4716 v 20.67696 20.67696 h 15.77978 15.77979 v 9.25022 9.25022 H 681.25138 665.4716 v 19.5887 19.58869 l 14.96359,0.10848 c 8.22997,0.0597 16.18788,0.45743 17.68424,0.88393 2.59995,0.74105 2.7139,1.12522 2.5685,8.65908 -0.0837,4.33599 -0.37976,8.11122 -0.65793,8.3894 -0.71626,0.71626 -51.88632,1.50162 -55.50743,0.85192 z"
       id="path15" />
    <path
       style="fill:#ffc107;fill-opacity:1;stroke-width:1.08826"
       d="m 565.81336,350.94633 c -6.90752,-2.71273 -14.02819,-8.72441 -16.82322,-14.20313 -1.65953,-3.25293 -2.13899,-6.39792 -2.13899,-14.03046 v -9.8377 h 10.19791 10.19791 l 0.7617,6.73251 c 0.97726,8.63784 3.099,12.64406 7.71872,14.57431 7.56687,3.16164 16.42852,0.77751 20.21992,-5.43994 2.47755,-4.0629 2.73077,-13.22427 0.51227,-18.53388 -2.20478,-5.27677 -8.7902,-11.21762 -19.2743,-17.38777 -5.65157,-3.32608 -12.48522,-8.71192 -17.99099,-14.17933 -7.71002,-7.6563 -9.13063,-9.67088 -10.79877,-15.31372 -1.12238,-3.79671 -1.93305,-10.15323 -1.95025,-15.29194 -0.0249,-7.43034 0.43658,-9.7468 2.97521,-14.93556 6.24231,-12.75882 15.89755,-17.62404 34.97567,-17.62404 10.95945,0 12.50483,0.26219 18.29062,3.10321 4.95696,2.43404 7.18635,4.40767 10.33848,9.15244 3.80023,5.72032 4.03924,6.60186 4.39585,16.21342 l 0.37711,10.16419 -6.36255,-0.012 c -3.4994,-0.007 -8.19899,-0.31552 -10.44353,-0.68652 -3.90315,-0.64515 -4.08097,-0.85954 -4.08097,-4.92015 0,-13.22944 -11.67475,-20.51953 -21.87635,-13.6603 -12.12212,8.15052 -5.17538,30.14126 12.30502,38.95308 13.45324,6.78174 26.38702,18.8663 31.10244,29.06031 2.34076,5.06035 2.88388,7.84901 2.90751,14.92883 0.0525,15.73864 -5.79786,25.91922 -18.48157,32.16072 -4.70011,2.31286 -7.13265,2.6978 -18.47206,2.92315 -10.88858,0.21639 -13.97721,-0.10103 -18.58279,-1.90975 z"
       id="path16" />
    <path
       style="fill:#ffc107;fill-opacity:1;stroke-width:0.544131"
       d="m 225.7307,241.18585 c 0.0289,-8.15516 0.21257,-19.68348 0.4081,-25.61848 0.31345,-9.51398 0.4714,-10.87561 1.33485,-11.50655 1.05601,-0.77165 7.32117,-2.56142 34.38915,-9.82391 73.52867,-19.72817 76.62448,-20.51847 79.14675,-20.20479 1.36005,0.16915 9.20644,2.12129 17.43641,4.3381 20.35265,5.48214 82.2408,22.30025 88.96534,24.17634 l 5.4413,1.51807 v 25.11312 c 0,13.81222 -0.17932,25.29232 -0.3985,25.51135 -0.42214,0.42185 -2.38987,-1.0673 -11.07893,-8.3844 -12.10503,-10.1937 -23.16914,-17.40155 -36.95018,-24.07166 -10.15073,-4.913 -16.78238,-7.45096 -26.31418,-10.07053 -21.23475,-5.83583 -41.31686,-7.08443 -60.7467,-3.77693 -30.92854,5.26491 -58.61333,19.02378 -84.26424,41.8779 -3.54947,3.16246 -6.67142,5.74992 -6.93767,5.74992 -0.27213,0 -0.46106,-6.49202 -0.4315,-14.82755 z"
       id="path33" />
    <path
       style="fill:#ffc107;fill-opacity:1;stroke-width:0.544131"
       d="m 330.94837,400.18905 c -13.04952,-4.84852 -35.13042,-17.52373 -49.29483,-28.29697 -10.49401,-7.98159 -32.81279,-31.75554 -30.52709,-32.51744 0.30127,-0.10042 3.19174,1.50506 6.42325,3.56774 11.67067,7.44942 18.60308,11.22742 29.00101,15.80489 21.26398,9.36103 34.04538,11.904 57.25418,11.39125 13.56577,-0.29971 17.92569,-0.86446 28.66947,-3.71363 14.59088,-3.86939 32.5863,-12.06218 46.50372,-21.1718 8.36142,-5.47295 10.67896,-6.79305 10.67896,-6.08285 0,2.41658 -19.72803,22.92463 -29.38305,30.54481 -16.01434,12.63925 -37.68501,24.75191 -54.1264,30.25354 -6.88797,2.30486 -9.48767,2.34257 -15.19922,0.22046 z"
       id="path35" />
  </g>
</svg>
